<mxfile host="app.diagrams.net" agent="Mozilla/5.0 (X11; Linux x86_64; rv:135.0) Gecko/20100101 Firefox/135.0" version="26.0.7">
  <diagram name="Page-1" id="TK-m_i6JC2_3VGK8YgOY">
    <mxGraphModel dx="484" dy="772" grid="1" gridSize="10" guides="1" tooltips="1" connect="1" arrows="1" fold="1" page="1" pageScale="1" pageWidth="850" pageHeight="1100" math="0" shadow="0">
      <root>
        <mxCell id="0" />
        <mxCell id="1" parent="0" />
        <mxCell id="ntfHrqGs_APudcSPR4Ab-32" value="&lt;div align=&quot;left&quot;&gt;Main Lexer&lt;/div&gt;" style="swimlane;whiteSpace=wrap;html=1;startSize=23;align=left;" vertex="1" parent="1">
          <mxGeometry x="40" y="270" width="700" height="110" as="geometry">
            <mxRectangle x="440" y="230" width="140" height="30" as="alternateBounds" />
          </mxGeometry>
        </mxCell>
        <mxCell id="ntfHrqGs_APudcSPR4Ab-10" style="edgeStyle=orthogonalEdgeStyle;rounded=0;orthogonalLoop=1;jettySize=auto;html=1;exitX=1;exitY=0.5;exitDx=0;exitDy=0;entryX=0;entryY=0.5;entryDx=0;entryDy=0;" edge="1" parent="ntfHrqGs_APudcSPR4Ab-32" source="ntfHrqGs_APudcSPR4Ab-1" target="ntfHrqGs_APudcSPR4Ab-4">
          <mxGeometry relative="1" as="geometry" />
        </mxCell>
        <mxCell id="ntfHrqGs_APudcSPR4Ab-1" value="FStringQuoteStart: &#39;f&quot;&#39;" style="rounded=1;whiteSpace=wrap;html=1;" vertex="1" parent="ntfHrqGs_APudcSPR4Ab-32">
          <mxGeometry x="20" y="60" width="130" height="20" as="geometry" />
        </mxCell>
        <mxCell id="ntfHrqGs_APudcSPR4Ab-11" style="edgeStyle=orthogonalEdgeStyle;rounded=0;orthogonalLoop=1;jettySize=auto;html=1;exitX=1;exitY=0.5;exitDx=0;exitDy=0;entryX=0;entryY=0.5;entryDx=0;entryDy=0;" edge="1" parent="ntfHrqGs_APudcSPR4Ab-32" source="ntfHrqGs_APudcSPR4Ab-4" target="ntfHrqGs_APudcSPR4Ab-8">
          <mxGeometry relative="1" as="geometry" />
        </mxCell>
        <mxCell id="ntfHrqGs_APudcSPR4Ab-4" value="Content: &#39;Result: &#39;" style="rounded=1;whiteSpace=wrap;html=1;" vertex="1" parent="ntfHrqGs_APudcSPR4Ab-32">
          <mxGeometry x="180" y="60" width="120" height="20" as="geometry" />
        </mxCell>
        <mxCell id="ntfHrqGs_APudcSPR4Ab-8" value="ExpStart: &#39;{&#39;" style="rounded=1;whiteSpace=wrap;html=1;" vertex="1" parent="ntfHrqGs_APudcSPR4Ab-32">
          <mxGeometry x="330" y="60" width="70" height="20" as="geometry" />
        </mxCell>
        <mxCell id="ntfHrqGs_APudcSPR4Ab-14" style="edgeStyle=orthogonalEdgeStyle;rounded=0;orthogonalLoop=1;jettySize=auto;html=1;exitX=1;exitY=0.5;exitDx=0;exitDy=0;entryX=0;entryY=0.5;entryDx=0;entryDy=0;" edge="1" parent="ntfHrqGs_APudcSPR4Ab-32" source="ntfHrqGs_APudcSPR4Ab-12" target="ntfHrqGs_APudcSPR4Ab-13">
          <mxGeometry relative="1" as="geometry" />
        </mxCell>
        <mxCell id="ntfHrqGs_APudcSPR4Ab-12" value="ExpStart: &#39;}&#39;" style="rounded=1;whiteSpace=wrap;html=1;" vertex="1" parent="ntfHrqGs_APudcSPR4Ab-32">
          <mxGeometry x="460" y="60" width="70" height="20" as="geometry" />
        </mxCell>
        <mxCell id="ntfHrqGs_APudcSPR4Ab-13" value="FStringQuoteEnd: &#39;&quot;&#39;" style="rounded=1;whiteSpace=wrap;html=1;" vertex="1" parent="ntfHrqGs_APudcSPR4Ab-32">
          <mxGeometry x="560" y="60" width="120" height="20" as="geometry" />
        </mxCell>
        <mxCell id="ntfHrqGs_APudcSPR4Ab-18" style="edgeStyle=orthogonalEdgeStyle;rounded=0;orthogonalLoop=1;jettySize=auto;html=1;exitX=1;exitY=0.5;exitDx=0;exitDy=0;entryX=0;entryY=0.5;entryDx=0;entryDy=0;" edge="1" parent="ntfHrqGs_APudcSPR4Ab-32" source="ntfHrqGs_APudcSPR4Ab-16" target="ntfHrqGs_APudcSPR4Ab-12">
          <mxGeometry relative="1" as="geometry" />
        </mxCell>
        <mxCell id="ntfHrqGs_APudcSPR4Ab-16" value="" style="ellipse;whiteSpace=wrap;html=1;aspect=fixed;" vertex="1" parent="ntfHrqGs_APudcSPR4Ab-32">
          <mxGeometry x="420" y="60" width="20" height="20" as="geometry" />
        </mxCell>
        <mxCell id="ntfHrqGs_APudcSPR4Ab-17" style="edgeStyle=orthogonalEdgeStyle;rounded=0;orthogonalLoop=1;jettySize=auto;html=1;exitX=1;exitY=0.5;exitDx=0;exitDy=0;entryX=0;entryY=0.5;entryDx=0;entryDy=0;" edge="1" parent="ntfHrqGs_APudcSPR4Ab-32" source="ntfHrqGs_APudcSPR4Ab-8" target="ntfHrqGs_APudcSPR4Ab-16">
          <mxGeometry relative="1" as="geometry">
            <mxPoint x="408.46000000000004" y="70.69999999999982" as="targetPoint" />
          </mxGeometry>
        </mxCell>
        <mxCell id="ntfHrqGs_APudcSPR4Ab-46" value="" style="endArrow=classic;html=1;rounded=0;exitX=0;exitY=1;exitDx=0;exitDy=0;entryX=0.5;entryY=0;entryDx=0;entryDy=0;edgeStyle=orthogonalEdgeStyle;dashed=1;" edge="1" parent="ntfHrqGs_APudcSPR4Ab-32" target="ntfHrqGs_APudcSPR4Ab-19">
          <mxGeometry width="50" height="50" relative="1" as="geometry">
            <mxPoint x="426.1789321881346" y="80.00106781186548" as="sourcePoint" />
            <mxPoint x="142" y="162.93" as="targetPoint" />
            <Array as="points">
              <mxPoint x="426" y="100" />
              <mxPoint x="139" y="100" />
            </Array>
          </mxGeometry>
        </mxCell>
        <mxCell id="ntfHrqGs_APudcSPR4Ab-47" value="" style="endArrow=classic;html=1;rounded=0;exitX=0.5;exitY=0;exitDx=0;exitDy=0;entryX=1;entryY=1;entryDx=0;entryDy=0;edgeStyle=orthogonalEdgeStyle;dashed=1;" edge="1" parent="ntfHrqGs_APudcSPR4Ab-32" source="ntfHrqGs_APudcSPR4Ab-20">
          <mxGeometry width="50" height="50" relative="1" as="geometry">
            <mxPoint x="587.18" y="162.93" as="sourcePoint" />
            <mxPoint x="433.00106781186554" y="80.00106781186554" as="targetPoint" />
            <Array as="points">
              <mxPoint x="591" y="100" />
              <mxPoint x="433" y="100" />
            </Array>
          </mxGeometry>
        </mxCell>
        <mxCell id="ntfHrqGs_APudcSPR4Ab-33" value="&lt;div align=&quot;left&quot;&gt;Sub-Lexer&lt;/div&gt;" style="swimlane;whiteSpace=wrap;html=1;startSize=23;align=left;" vertex="1" parent="1">
          <mxGeometry x="40" y="380" width="700" height="100" as="geometry">
            <mxRectangle x="440" y="230" width="140" height="30" as="alternateBounds" />
          </mxGeometry>
        </mxCell>
        <mxCell id="ntfHrqGs_APudcSPR4Ab-24" style="edgeStyle=orthogonalEdgeStyle;rounded=0;orthogonalLoop=1;jettySize=auto;html=1;exitX=1;exitY=0.5;exitDx=0;exitDy=0;entryX=0;entryY=0.5;entryDx=0;entryDy=0;" edge="1" parent="ntfHrqGs_APudcSPR4Ab-33" source="ntfHrqGs_APudcSPR4Ab-19" target="ntfHrqGs_APudcSPR4Ab-23">
          <mxGeometry relative="1" as="geometry" />
        </mxCell>
        <mxCell id="ntfHrqGs_APudcSPR4Ab-19" value="" style="ellipse;whiteSpace=wrap;html=1;aspect=fixed;" vertex="1" parent="ntfHrqGs_APudcSPR4Ab-33">
          <mxGeometry x="128.75" y="50" width="20" height="20" as="geometry" />
        </mxCell>
        <mxCell id="ntfHrqGs_APudcSPR4Ab-20" value="" style="ellipse;whiteSpace=wrap;html=1;aspect=fixed;" vertex="1" parent="ntfHrqGs_APudcSPR4Ab-33">
          <mxGeometry x="581.25" y="50" width="20" height="20" as="geometry" />
        </mxCell>
        <mxCell id="ntfHrqGs_APudcSPR4Ab-29" style="edgeStyle=orthogonalEdgeStyle;rounded=0;orthogonalLoop=1;jettySize=auto;html=1;exitX=1;exitY=0.5;exitDx=0;exitDy=0;entryX=0;entryY=0.5;entryDx=0;entryDy=0;" edge="1" parent="ntfHrqGs_APudcSPR4Ab-33" source="ntfHrqGs_APudcSPR4Ab-23" target="ntfHrqGs_APudcSPR4Ab-27">
          <mxGeometry relative="1" as="geometry" />
        </mxCell>
        <mxCell id="ntfHrqGs_APudcSPR4Ab-23" value="Identifier: &#39;sample&#39;" style="rounded=1;whiteSpace=wrap;html=1;" vertex="1" parent="ntfHrqGs_APudcSPR4Ab-33">
          <mxGeometry x="181.25" y="50" width="120" height="20" as="geometry" />
        </mxCell>
        <mxCell id="ntfHrqGs_APudcSPR4Ab-26" style="edgeStyle=orthogonalEdgeStyle;rounded=0;orthogonalLoop=1;jettySize=auto;html=1;exitX=1;exitY=0.5;exitDx=0;exitDy=0;entryX=0;entryY=0.5;entryDx=0;entryDy=0;" edge="1" parent="ntfHrqGs_APudcSPR4Ab-33" source="ntfHrqGs_APudcSPR4Ab-25" target="ntfHrqGs_APudcSPR4Ab-20">
          <mxGeometry relative="1" as="geometry" />
        </mxCell>
        <mxCell id="ntfHrqGs_APudcSPR4Ab-25" value="IntegerConstant: &#39;4&#39;" style="rounded=1;whiteSpace=wrap;html=1;" vertex="1" parent="ntfHrqGs_APudcSPR4Ab-33">
          <mxGeometry x="431.25" y="50" width="120" height="20" as="geometry" />
        </mxCell>
        <mxCell id="ntfHrqGs_APudcSPR4Ab-30" style="edgeStyle=orthogonalEdgeStyle;rounded=0;orthogonalLoop=1;jettySize=auto;html=1;exitX=1;exitY=0.5;exitDx=0;exitDy=0;entryX=0;entryY=0.5;entryDx=0;entryDy=0;" edge="1" parent="ntfHrqGs_APudcSPR4Ab-33" source="ntfHrqGs_APudcSPR4Ab-27" target="ntfHrqGs_APudcSPR4Ab-25">
          <mxGeometry relative="1" as="geometry" />
        </mxCell>
        <mxCell id="ntfHrqGs_APudcSPR4Ab-27" value="Plus: &#39;+&#39;" style="rounded=1;whiteSpace=wrap;html=1;" vertex="1" parent="ntfHrqGs_APudcSPR4Ab-33">
          <mxGeometry x="331.25" y="50" width="70" height="20" as="geometry" />
        </mxCell>
        <mxCell id="ntfHrqGs_APudcSPR4Ab-48" value="&amp;nbsp;" style="text;whiteSpace=wrap;html=1;" vertex="1" parent="1">
          <mxGeometry x="680" y="480" width="40" height="40" as="geometry" />
        </mxCell>
      </root>
    </mxGraphModel>
  </diagram>
</mxfile>
